<svg id="Layer_1" data-name="Layer 1" xmlns="http://www.w3.org/2000/svg" viewBox="0 0 511.92 510.99"><path id="Rectangle_92" data-name="Rectangle 92" class="cls-1" d="M482.37,122.29h0a16.38,16.38,0,0,1-1.23,23.24L292.58,314.42a16.62,16.62,0,0,1-23.38-1.21h0A16.41,16.41,0,0,1,270.43,290L459,121.07A16.6,16.6,0,0,1,482.37,122.29Z" transform="translate(-0.04 -5.72)"/><rect class="cls-1" x="178.16" y="250.19" width="134.26" height="32.48" rx="16.24" transform="translate(230.3 622.54) rotate(-135)"/><rect class="cls-1" x="441.11" y="126.08" width="109.21" height="32.48" rx="16.24" transform="translate(353.36 632.31) rotate(-90)"/><rect class="cls-1" x="402.7" y="81.99" width="109.21" height="32.48" rx="16.24"/><rect class="cls-1" x="0.63" y="465.99" width="510.57" height="45" rx="20"/><rect class="cls-1" x="-232.74" y="238.51" width="510.57" height="45" rx="22.5" transform="translate(-238.51 277.83) rotate(-90)"/><rect class="cls-1" x="-24.06" y="298.02" width="280.43" height="32.48" rx="16.24" transform="translate(412.87 464.05) rotate(137.94)"/></svg>