<?xml version="1.0" encoding="UTF-8" standalone="no"?>
<svg
   id="Layer_1"
   data-name="Layer 1"
   viewBox="0 0 494.49 495.81"
   version="1.1"
   sodipodi:docname="Cashier.svg"
   inkscape:version="1.1.1 (3bf5ae0d25, 2021-09-20)"
   xmlns:inkscape="http://www.inkscape.org/namespaces/inkscape"
   xmlns:sodipodi="http://sodipodi.sourceforge.net/DTD/sodipodi-0.dtd"
   xmlns="http://www.w3.org/2000/svg"
   xmlns:svg="http://www.w3.org/2000/svg">
  <sodipodi:namedview
     id="namedview105"
     pagecolor="#ffffff"
     bordercolor="#666666"
     borderopacity="1.0"
     inkscape:pageshadow="2"
     inkscape:pageopacity="0.0"
     inkscape:pagecheckerboard="0"
     showgrid="false"
     showguides="false"
     inkscape:zoom="1.7123495"
     inkscape:cx="132.2744"
     inkscape:cy="221.04133"
     inkscape:window-width="1920"
     inkscape:window-height="1057"
     inkscape:window-x="-8"
     inkscape:window-y="-8"
     inkscape:window-maximized="1"
     inkscape:current-layer="layer2" />
  <g
     inkscape:groupmode="layer"
     id="layer2"
     inkscape:label="Layer 2">
    <path
       
       d="M 38.990234,314.36914 C 17.666552,314.36914 0,332.03569 0,353.35937 v 103.46094 c 0,21.32369 17.666552,38.99024 38.990234,38.99024 H 455.5 c 21.32368,0 38.99023,-17.66655 38.99023,-38.99024 V 353.35937 c 0,-21.32368 -17.66655,-38.99023 -38.99023,-38.99023 z m 0,32 H 455.5 c 4.14921,0 6.99023,2.84102 6.99023,6.99023 v 103.46094 c 0,4.14921 -2.84102,6.99024 -6.99023,6.99024 H 38.990234 C 34.841023,463.81055 32,460.96952 32,456.82031 V 353.35937 c 0,-4.14921 2.841023,-6.99023 6.990234,-6.99023 z"
       id="path490" />
    <path
       
       d="m 83.003906,159.88086 -3.996094,10.125 C 57.582164,224.28328 36.14372,278.55427 14.691406,332.81836 L 6.0390625,354.69922 H 256.64062 499.5332 l -8.65429,-21.88281 C 469.41318,278.53212 447.96674,224.26152 426.54102,170.00391 l -3.9961,-10.12305 h -173.6543 z m 21.767574,32 H 248.89062 400.7793 c 17.21714,43.59624 34.4504,87.2049 51.69336,130.81836 H 256.64062 53.09375 c 17.233824,-43.60205 34.461124,-87.2077 51.67773,-130.81836 z"
       id="path485"
       transform="translate(-5.51,-8.35)" />
    <path
       
       d="m 104.75,72.660156 c -12.970643,0.01102 -23.738985,10.779357 -23.75,23.75 v 0.0039 62.470708 0.006 c 0.01088,12.93515 10.723167,23.68525 23.6582,23.74024 h 0.0254 296.61719 c 12.97462,0 23.75,-10.77539 23.75,-23.75 V 96.419922 c 1e-5,-12.972628 -10.76761,-23.748735 -23.74023,-23.759766 h -0.006 -184.18555 v 24 H 401.05078 V 158.63086 H 105 V 96.660156 h 37.67969 v -24 h -37.92383 z"
       id="path66"
       transform="translate(-5.51,-8.35)" />
    <path
       
       d="m 294.15039,0 c -8.88073,0 -16.28125,7.3985638 -16.28125,16.279297 v 18.791015 c 0,8.880734 7.40052,16.279297 16.28125,16.279297 h 85.99023 c 8.88074,0 16.2793,-7.398563 16.2793,-16.279297 V 16.279297 C 396.41992,7.3985638 389.02136,0 380.14062,0 Z m 0,16 h 85.99023 c 0.2935,0 0.2793,-0.0142 0.2793,0.279297 v 18.791015 c 0,0.293498 0.0142,0.279297 -0.2793,0.279297 h -85.99023 c -0.2935,0 -0.28125,0.0142 -0.28125,-0.279297 V 16.279297 C 293.86914,15.985799 293.85689,16 294.15039,16 Z"
       id="rect68" />
    <rect
       class="cls-4"
       x="113.66"
       y="195.25"
       width="51.18"
       height="14.75"
       rx="7.37"
       id="rect70" />
    <rect
       class="cls-4"
       x="187.39"
       y="195.25"
       width="51.18"
       height="14.75"
       rx="7.37"
       id="rect72" />
    <rect
       class="cls-4"
       x="255.05"
       y="195.25"
       width="51.18"
       height="14.75"
       rx="7.37"
       id="rect74" />
    <rect
       class="cls-4"
       x="326.62"
       y="195.25"
       width="51.18"
       height="14.75"
       rx="7.37"
       id="rect76" />
    <rect
       class="cls-4"
       x="95.27"
       y="233.79"
       width="58.13"
       height="16.75"
       rx="7.37"
       id="rect78" />
    <rect
       class="cls-4"
       x="179.01"
       y="233.79"
       width="58.13"
       height="16.75"
       rx="7.37"
       id="rect80" />
    <rect
       class="cls-4"
       x="255.86"
       y="233.79"
       width="58.13"
       height="16.75"
       rx="7.37"
       id="rect82" />
    <rect
       class="cls-4"
       x="337.14"
       y="233.79"
       width="58.13"
       height="16.75"
       rx="7.37"
       id="rect84" />
    <rect
       class="cls-4"
       x="70.27"
       y="285.75"
       width="67.82"
       height="19.54"
       rx="7.37"
       id="rect86" />
    <rect
       class="cls-4"
       x="167.97"
       y="285.75"
       width="67.82"
       height="19.54"
       rx="7.37"
       id="rect88" />
    <rect
       class="cls-4"
       x="257.63"
       y="285.75"
       width="67.82"
       height="19.54"
       rx="7.37"
       id="rect90" />
    <rect
       class="cls-4"
       x="352.46"
       y="285.75"
       width="67.82"
       height="19.54"
       rx="7.37"
       id="rect92" />
    <rect
       class="cls-4"
       x="124.34"
       y="108.85"
       width="100.07"
       height="14.75"
       rx="7.37"
       id="rect428" />
    <path
       
       d="m 276.92969,93.910156 v 8.000004 42.77929 H 382.08984 V 93.910156 Z m 16,16.000004 h 73.16015 v 18.77929 h -73.16015 z"
       id="rect96" />
    <rect
       class="cls-4"
       x="195.27"
       y="389.9"
       width="100"
       height="30.38"
       rx="7.37"
       id="rect495" />
    <path
       
       d="m 145.40039,15.589844 c -8.88073,0 -16.28125,7.398564 -16.28125,16.279297 v 75.499999 c 0,8.88073 7.40052,16.28125 16.28125,16.28125 h 57.92969 c 8.88073,0 16.2793,-7.40052 16.27929,-16.28125 V 31.869141 c 0,-8.880733 -7.39856,-16.279297 -16.27929,-16.279297 z m 0,16 h 57.92969 c 0.2935,0 0.2793,-0.0142 0.27929,0.279297 v 75.499999 c 0,0.2935 0.0142,0.28125 -0.27929,0.28125 h -57.92969 c -0.2935,0 -0.28125,0.0122 -0.28125,-0.28125 V 31.869141 c 0,-0.293498 -0.0122,-0.279297 0.28125,-0.279297 z"
       id="rect100" />
    <path
       
       d="m 324.21094,35.349609 c -8.88074,0 -16.28125,7.400517 -16.28125,16.28125 v 13.839844 c 0,8.880733 7.40051,16.279297 16.28125,16.279297 h 25.86914 c 8.88073,0 16.27929,-7.398564 16.27929,-16.279297 V 51.630859 c 0,-8.880733 -7.39856,-16.28125 -16.27929,-16.28125 z m 0,16 h 25.86914 c 0.2935,0 0.27929,-0.01225 0.27929,0.28125 v 13.839844 c 0,0.293498 0.0142,0.279297 -0.27929,0.279297 h -25.86914 c -0.2935,0 -0.28125,0.0142 -0.28125,-0.279297 V 51.630859 c 0,-0.293497 -0.0122,-0.28125 0.28125,-0.28125 z"
       id="rect102" />
  </g>
</svg>
