<?xml version="1.0" encoding="UTF-8" standalone="no"?>
<svg
   id="Layer_1"
   data-name="Layer 1"
   viewBox="0 0 410.17 509.82"
   version="1.1"
   sodipodi:docname="Manajemen Pegawai.svg"
   inkscape:version="1.1.1 (3bf5ae0d25, 2021-09-20)"
   xmlns:inkscape="http://www.inkscape.org/namespaces/inkscape"
   xmlns:sodipodi="http://sodipodi.sourceforge.net/DTD/sodipodi-0.dtd"
   xmlns="http://www.w3.org/2000/svg"
   xmlns:svg="http://www.w3.org/2000/svg">
  <sodipodi:namedview
     id="namedview2934"
     pagecolor="#ffffff"
     bordercolor="#666666"
     borderopacity="1.0"
     inkscape:pageshadow="2"
     inkscape:pageopacity="0.0"
     inkscape:pagecheckerboard="0"
     showgrid="false"
     inkscape:zoom="1.63391"
     inkscape:cx="152.70119"
     inkscape:cy="249.40174"
     inkscape:window-width="1920"
     inkscape:window-height="1057"
     inkscape:window-x="-8"
     inkscape:window-y="-8"
     inkscape:window-maximized="1"
     inkscape:current-layer="Layer_1" />
  <path
     
     d="m 239.56641,203.66992 c -95.98678,0.0226 -187.993565,97.16703 -188.746098,228.84961 l -0.0918,16.08984 H 66.820312 300.03711 l 4.77734,-6.83398 c 16.64073,-23.80872 73.61836,-107.35527 86.30664,-126.56836 l 5.78321,-8.75586 -5.72657,-8.79297 c -5.95556,-9.14437 -61.04141,-93.98828 -151.60742,-93.98828 h -0.002 z m 0.004,32 c 58.0847,0 102.84993,50.51569 118.60742,71.05274 -15.805,23.60229 -57.11779,84.21117 -74.93164,109.88671 H 83.615234 C 91.363549,308.64773 169.33209,235.68915 239.57031,235.66992 Z"
     id="Path_53"
     transform="translate(-50.73 -2.02)" />
  <path
     
     d="M 187.01953,0 C 127.23378,0 78.419922,48.795529 78.419922,108.57031 c 0,59.77479 48.813858,108.57031 108.599608,108.57031 59.78575,0 108.59961,-48.79552 108.59961,-108.57031 C 295.61914,48.795529 246.80528,0 187.01953,0 Z m 0,32 c 42.49729,0 76.59961,34.0952 76.59961,76.57031 0,42.47512 -34.10232,76.57032 -76.59961,76.57031 -42.49728,0 -76.59961,-34.09519 -76.59961,-76.57031 C 110.41992,66.0952 144.52225,32 187.01953,32 Z"
     id="ellipse2921" />
  <path
     
     d="m 381.73437,344.55664 -71.66015,110.62695 -8.97266,56.61914 13.16602,-5.40234 43.08789,-17.67773 75.14844,-111.28321 z m 4.73047,22.12695 23.65039,15.31836 -63.31054,93.75586 -25.44727,10.44141 3.98828,-25.16211 z"
     id="path2923"
     transform="translate(-50.73 -2.02)" />
  <path
     
     d="m 176.13086,210.67969 c -13.05654,0 -23.88086,10.82432 -23.88086,23.88086 v 26.86914 c 0,13.05653 10.82432,23.88086 23.88086,23.88086 h 26.88867 c 13.05654,0 23.88086,-10.82433 23.88086,-23.88086 v -26.86914 c 0,-13.05654 -10.82432,-23.88086 -23.88086,-23.88086 z m 0,20 h 26.88867 c 2.32249,0 3.88086,1.55837 3.88086,3.88086 v 26.86914 c 0,2.32249 -1.55837,3.88086 -3.88086,3.88086 h -26.88867 c -2.32249,0 -3.88086,-1.55837 -3.88086,-3.88086 v -26.86914 c 0,-2.32249 1.55837,-3.88086 3.88086,-3.88086 z"
     id="rect2925" />
  <path
     
     d="m 267.43359,281.48437 -55.06054,0.47852 -1.37696,8.28516 c -4.16023,25.00806 -8.31403,50.01112 -12.46093,75.00586 l -0.91211,5.49609 41.83789,36.58203 41.38867,-38.19922 -0.80469,-5.25586 z m -17.14843,20.1504 9.18554,60.01171 -20.37109,18.80274 -19.91992,-17.41797 c 3.38526,-20.4001 6.77382,-40.80586 10.16797,-61.21484 z"
     id="path2927"
     transform="translate(-50.73 -2.02)" />
  <path
     
     d="m 348.93359,315.39648 -25.51172,38.74805 50.99415,32.48633 4.33593,-6.58008 21.17578,-32.15234 z m 4.69336,21.9668 24.00586,15.29883 -7.91015,12.00586 -24.00391,-15.29102 z"
     id="polygon2929" />
  <path
     
     d="m 418.96094,301.7207 c -10.87027,0 -19.8418,8.96958 -19.8418,19.83985 v 9.97851 c 0,10.87027 8.97153,19.8418 19.8418,19.8418 h 21.07812 c 10.87027,0 19.8418,-8.97153 19.8418,-19.8418 v -9.97851 c 0,-10.87027 -8.97153,-19.83985 -19.8418,-19.83985 z m 0,14 h 21.07812 c 3.35644,0 5.8418,2.48341 5.8418,5.83985 v 9.97851 c 0,3.35644 -2.48536,5.8418 -5.8418,5.8418 h -21.07812 c -3.35644,0 -5.8418,-2.48536 -5.8418,-5.8418 v -9.97851 c 0,-3.35644 2.48536,-5.83985 5.8418,-5.83985 z"
     id="rect2931"
     transform="translate(195.76 -183.02) rotate(32.93)" />
</svg>
