<?xml version="1.0" encoding="UTF-8" standalone="no"?>
<svg
   id="Layer_1"
   data-name="Layer 1"
   viewBox="0 0 510.61 486.76"
   version="1.1"
   sodipodi:docname="Manajemen Pelanggan.svg"
   inkscape:version="1.1.1 (3bf5ae0d25, 2021-09-20)"
   xmlns:inkscape="http://www.inkscape.org/namespaces/inkscape"
   xmlns:sodipodi="http://sodipodi.sourceforge.net/DTD/sodipodi-0.dtd"
   xmlns="http://www.w3.org/2000/svg"
   xmlns:svg="http://www.w3.org/2000/svg">
  <sodipodi:namedview
     id="namedview854"
     pagecolor="#ffffff"
     bordercolor="#666666"
     borderopacity="1.0"
     inkscape:pageshadow="2"
     inkscape:pageopacity="0.0"
     inkscape:pagecheckerboard="0"
     showgrid="false"
     inkscape:zoom="1.744186"
     inkscape:cx="255.42"
     inkscape:cy="243.38"
     inkscape:window-width="1920"
     inkscape:window-height="1057"
     inkscape:window-x="-8"
     inkscape:window-y="-8"
     inkscape:window-maximized="1"
     inkscape:current-layer="Layer_1" />
  <path
     
     d="m 156.21094,171.30078 c -35.96596,0 -64.92893,12.00704 -86.376956,29.89063 C 48.385959,219.07499 34.270333,242.2834 24.734375,264.8457 5.6624596,309.97032 4.3398437,354.30078 4.3398437,354.30078 L 3.7714844,370.84961 H 20.330078 169.20312 l 36.24024,-24.99805 75.28711,-51.9082 -34.875,-8.37109 c -22.91828,-5.50169 -40.40102,-21.88509 -46.06055,-42.21094 -5.87998,-21.1324 3.19043,-39.5968 5.49219,-43.83203 l 9.16406,-16.86133 -18.23437,-5.98047 c -1.46318,-0.47992 -3.83446,-1.22539 -6.79297,-1.99414 l -0.50391,-0.13086 -0.51367,-0.0977 c -10.57369,-2.02305 -21.30905,-3.08174 -32.07422,-3.16406 h -0.0606 z m -0.0488,32.00195 c 4.39488,0.0359 8.78304,0.26765 13.15234,0.69922 -3.47478,12.38169 -5.59354,29.09103 -0.34961,47.9375 h 0.002 v 0.002 c 6.17003,22.16329 20.92164,40.43599 40.27539,52.42187 l -21.96485,15.14453 -28.04101,19.3418 H 38.09375 c 1.953824,-15.02298 6.109555,-37.87124 16.115234,-61.54492 8.167775,-19.32515 19.888064,-38.0051 36.117188,-51.53711 16.219708,-13.52416 36.763738,-22.45448 65.835938,-22.46485 z"
     id="Path_53"
     transform="translate(-3.77 -12.62)" />
  <path
     
     d="m 151.00977,0 c -48.87542,0 -88.839848,39.964432 -88.839848,88.839844 0,48.875416 39.964428,88.839846 88.839848,88.839846 48.87541,0 88.83984,-39.96443 88.83984,-88.839846 C 239.84961,39.964432 199.88518,0 151.00977,0 Z m 0,32 c 31.58134,0 56.83984,25.258498 56.83984,56.839844 0,31.581346 -25.2585,56.839846 -56.83984,56.839846 -31.58135,0 -56.839848,-25.2585 -56.839848,-56.839846 C 94.169922,57.258498 119.42842,32 151.00977,32 Z"
     id="circle845" />
  <path
     
     d="m 313.78711,167.88281 0.64258,17.70899 c 0.33334,9.1736 0.66665,18.33972 1,27.5 l 0.041,1.10156 0.19141,1.08594 c 0.62941,3.58111 4.11209,26.64427 -11.20508,47.21484 l -0.002,0.002 -0.002,0.002 c -13.83676,18.59415 -33.58155,22.85322 -38.18164,23.71875 l -40.69531,7.65625 125.39258,77.13086 4.53516,-0.004 158.3789,-0.13281 0.42188,-15.55469 c 0.32801,-12.12563 1.51311,-88.52035 -59.0625,-142.38867 -33.12617,-29.45776 -69.32464,-38.32164 -87.24805,-41.39453 l -0.82227,-0.14063 z m 33.26758,34.25391 16.09375,1.05664 c 15.00435,2.62017 44.27274,10.02622 70.83008,33.64258 37.35003,33.21441 45.96423,78.04099 47.84765,102.05859 l -121.81445,0.10156 -55.37891,-34.06445 c 8.62663,-5.33613 17.66161,-12.80693 25.49024,-23.32617 l 0.002,-0.004 c 22.20948,-29.82973 18.64739,-61.32726 17.27539,-69.93359 -0.11553,-3.17493 -0.23017,-6.35472 -0.3457,-9.53125 z"
     id="Path_53-2"
     transform="translate(-3.77 -12.62)" />
  <path
     
     d="m 360.10937,0 c -48.87541,0 -88.83984,39.964432 -88.83984,88.839844 0,48.875416 39.96443,88.839846 88.83984,88.839846 48.87542,0 88.83985,-39.96443 88.83985,-88.839846 C 448.94922,39.964432 408.98479,0 360.10937,0 Z m 0,32 c 31.58135,0 56.83985,25.258498 56.83985,56.839844 0,31.581346 -25.2585,56.839846 -56.83985,56.839846 -31.58134,0 -56.83984,-25.2585 -56.83984,-56.839846 C 303.26953,57.258498 328.52803,32 360.10937,32 Z"
     id="circle848" />
  <path
     
     d="m 259.25,299.83008 c -35.96595,0 -64.92809,12.00723 -86.37695,29.89062 -21.44887,17.8834 -35.56626,41.0921 -45.10352,63.6543 -19.07452,45.1244 -20.40039,89.45508 -20.40039,89.45508 l -0.56836,16.55078 h 16.5586 285.16796 l -0.27929,-16.27539 c 0,0 -0.55068,-44.32757 -18.8711,-89.51172 -9.1602,-22.59208 -22.9065,-45.85928 -44.11328,-63.79883 C 324.05689,311.85538 295.21595,299.83008 259.25,299.83008 Z m 0,32 c 29.09898,0 49.41533,8.91848 65.3457,22.39453 15.93037,13.47605 27.30148,32.0972 35.125,51.39258 9.64382,23.78482 13.39306,46.7646 15.07032,61.76367 H 141.125 c 1.95472,-15.023 6.11199,-37.87307 16.11914,-61.54688 8.16897,-19.32525 19.89093,-38.00295 36.12109,-51.53515 16.23017,-13.5322 36.78579,-22.46875 65.88477,-22.46875 z"
     id="Path_53-3"
     transform="translate(-3.77 -12.62)" />
  <path
     
     d="m 254.05078,128.5293 c -48.87541,0 -88.83984,39.96443 -88.83984,88.83984 0,48.87541 39.96443,88.8418 88.83984,88.8418 48.87541,0 88.83984,-39.96639 88.83984,-88.8418 0,-48.87541 -39.96443,-88.83984 -88.83984,-88.83984 z m 0,32 c 31.58135,0 56.83984,25.25849 56.83984,56.83984 0,31.58135 -25.25849,56.8418 -56.83984,56.8418 -31.58134,0 -56.83984,-25.26045 -56.83984,-56.8418 0,-31.58135 25.2585,-56.83984 56.83984,-56.83984 z"
     id="circle851" />
</svg>
