<?xml version="1.0" encoding="UTF-8" standalone="no"?>
<svg
   id="Layer_1"
   data-name="Layer 1"
   viewBox="0 0 481.86 465.78"
   version="1.1"
   sodipodi:docname="Pembelian.svg"
   inkscape:version="1.1.1 (3bf5ae0d25, 2021-09-20)"
   xmlns:inkscape="http://www.inkscape.org/namespaces/inkscape"
   xmlns:sodipodi="http://sodipodi.sourceforge.net/DTD/sodipodi-0.dtd"
   xmlns="http://www.w3.org/2000/svg"
   xmlns:svg="http://www.w3.org/2000/svg">
  <sodipodi:namedview
     id="namedview1675"
     pagecolor="#ffffff"
     bordercolor="#666666"
     borderopacity="1.0"
     inkscape:pageshadow="2"
     inkscape:pageopacity="0.0"
     inkscape:pagecheckerboard="0"
     showgrid="false"
     inkscape:zoom="1.8721285"
     inkscape:cx="241.16935"
     inkscape:cy="233.15708"
     inkscape:window-width="1920"
     inkscape:window-height="1057"
     inkscape:window-x="-8"
     inkscape:window-y="-8"
     inkscape:window-maximized="1"
     inkscape:current-layer="Layer_1" />
  <path
     
     d="m 190.83984,26.609375 v 58.865234 l 34.89063,32.599611 22.93164,22.58594 h 35.94531 l 2.3086,-2.16797 c 8.86285,-8.3197 18.04655,-16.6978 27.55273,-25.13672 11.02185,-9.7751 21.90704,-19.141353 32.6543,-28.099611 L 350,82.855469 V 26.609375 Z m 16,16 H 334 v 32.832031 c -9.95205,8.34271 -19.98073,16.925787 -30.14844,25.943364 l -0.002,0.002 c -8.79374,7.80643 -17.24678,15.55692 -25.50781,23.27344 H 255.21875 L 236.80859,106.52734 206.83984,78.525391 Z"
     id="path1652"
     transform="translate(-15.07 -26.61)" />
  <path
     
     d="m 162.99805,42.958984 -5.23633,5.820313 C 134.33641,74.824452 110.91473,100.84722 87.496094,126.8457 l -11.777344,13.07422 203.62695,3.22852 -16.73633,-14.41016 z m 1.42382,22.339844 71.01368,61.152342 -124.28321,-1.9707 c 17.75477,-19.71566 35.51094,-39.439167 53.26953,-59.181642 z"
     id="path1654"
     transform="translate(-15.07 -26.61)" />
  <path
     class="cls-2"
     d="M77.89,84.26,184,373.17c2.61,7.13-1.7,14.81-9.63,17.16h0c-7.94,2.35-16.5-1.52-19.12-8.65L49.14,92.77c-2.61-7.13,1.7-14.81,9.63-17.16h0C66.71,73.25,75.27,77.13,77.89,84.26Z"
     transform="translate(-15.07 -26.61)"
     id="path1656" />
  <rect
     class="cls-2"
     x="78.8"
     y="116.66"
     width="416.27"
     height="31.49"
     rx="15.39"
     transform="translate(558.8 238.2) rotate(180)"
     id="rect1658" />
  <rect
     class="cls-2"
     x="144.26"
     y="289.88"
     width="295.03"
     height="31.49"
     rx="15.39"
     transform="translate(568.49 584.65) rotate(180)"
     id="rect1660" />
  <rect
     class="cls-2"
     x="154.27"
     y="374.49"
     width="295.03"
     height="31.49"
     rx="15.39"
     transform="translate(588.51 753.86) rotate(-180)"
     id="rect1662" />
  <path
     class="cls-2"
     d="M496.19,137.88,442.35,310.25a15,15,0,0,1-19.06,10.11h0c-8-2.69-12.3-11.57-9.72-19.84L467.4,128.15a15,15,0,0,1,19.07-10.1h0C494.42,120.73,498.77,129.62,496.19,137.88Z"
     transform="translate(-15.07 -26.61)"
     id="path1664" />
  <path
     
     d="m 160.35937,349.41016 c -31.36,0 -56.50976,26.54503 -56.50976,58.18945 0,31.64442 25.14976,58.18945 56.50976,58.18945 31.36001,0 56.50977,-26.54503 56.50977,-58.18945 0,-31.64442 -25.14976,-58.18945 -56.50977,-58.18945 z m 0,30 c 14.49064,0 26.50977,12.12756 26.50977,28.18945 0,16.06189 -12.01913,28.18945 -26.50977,28.18945 -14.49063,0 -26.50976,-12.12756 -26.50976,-28.18945 0,-16.06189 12.01913,-28.18945 26.50976,-28.18945 z"
     id="ellipse1666" />
  <path
     
     d="m 398.30078,349.41016 c -31.36,0 -56.51172,26.54503 -56.51172,58.18945 0,31.64442 25.15172,58.18945 56.51172,58.18945 31.36,0 56.50977,-26.54503 56.50977,-58.18945 0,-31.64442 -25.14977,-58.18945 -56.50977,-58.18945 z m 0,30 c 14.49063,0 26.50977,12.12756 26.50977,28.18945 0,16.06189 -12.01914,28.18945 -26.50977,28.18945 -14.49063,0 -26.51172,-12.12756 -26.51172,-28.18945 0,-16.06189 12.02109,-28.18945 26.51172,-28.18945 z"
     id="ellipse1668" />
  <rect
     class="cls-2"
     x="15.07"
     y="74.49"
     width="63.73"
     height="31.49"
     rx="15.39"
     transform="translate(78.8 153.86) rotate(180)"
     id="rect1670" />
  <path
     
     d="M 384.33203,32.105469 268.5625,131.80078 289.80469,132 474.24414,133.72852 462.32031,120.25781 C 438.06125,92.8522 413.80823,65.44043 389.5625,38.021484 Z m -1.52344,22.427734 c 18.53317,20.957172 37.07233,41.909992 55.61328,62.859377 l -127.22265,-1.19336 z"
     id="path1672"
     transform="translate(-15.07 -26.61)" />
</svg>
