<?xml version="1.0" encoding="UTF-8" standalone="no"?>
<svg
   id="Layer_1"
   data-name="Layer 1"
   viewBox="0 0 493 493"
   version="1.1"
   sodipodi:docname="Pengaturan.svg"
   inkscape:version="1.1.1 (3bf5ae0d25, 2021-09-20)"
   xmlns:inkscape="http://www.inkscape.org/namespaces/inkscape"
   xmlns:sodipodi="http://sodipodi.sourceforge.net/DTD/sodipodi-0.dtd"
   xmlns="http://www.w3.org/2000/svg"
   xmlns:svg="http://www.w3.org/2000/svg">
  <sodipodi:namedview
     id="namedview1500"
     pagecolor="#ffffff"
     bordercolor="#666666"
     borderopacity="1.0"
     inkscape:pageshadow="2"
     inkscape:pageopacity="0.0"
     inkscape:pagecheckerboard="0"
     showgrid="false"
     inkscape:zoom="1.7687627"
     inkscape:cx="246.21732"
     inkscape:cy="246.78268"
     inkscape:window-width="1920"
     inkscape:window-height="1057"
     inkscape:window-x="-8"
     inkscape:window-y="-8"
     inkscape:window-maximized="1"
     inkscape:current-layer="Layer_1" />
  <path
     
     d="m 246.5,140.13086 c -58.75578,0 -106.73047,47.97273 -106.73047,106.72851 0,58.75579 47.97469,106.73047 106.73047,106.73047 58.75578,0 106.73047,-47.97468 106.73047,-106.73047 0,-58.75578 -47.97469,-106.72851 -106.73047,-106.72851 z m 0,32 c 41.46171,0 74.73047,33.2668 74.73047,74.72851 0,41.46172 -33.26876,74.73047 -74.73047,74.73047 -41.46171,0 -74.73047,-33.26875 -74.73047,-74.73047 0,-41.46171 33.26876,-74.72851 74.73047,-74.72851 z"
     id="path1590" />
  <path
     
     d="m 241.60547,14.830078 c -30.57883,0.0077 -55.70922,25.132116 -55.72461,55.710938 v 0.0059 16.65625 l -11.80664,-11.806641 -0.0898,-0.08984 -0.01,-0.0078 C 152.33106,53.724642 116.81438,53.774352 95.232422,75.410156 l -23.15625,23.15625 c -21.614043,21.610954 -21.614043,57.137094 0,78.748044 l 9.859375,9.88477 h -16.708985 -0.0039 C 34.643637,187.2146 9.5153818,212.34286 9.5,242.92187 v 0.004 32.79883 0.004 c 0.015382,30.57902 25.143637,55.70532 55.722656,55.7207 h 0.0039 6.857422 l -12.037109,12.03711 c -21.633018,21.63367 -21.633018,57.19445 0,78.82812 l 23.169922,23.16992 c 21.633673,21.63302 57.192503,21.63302 78.826173,0 l 23.15234,-23.15234 c 0.2508,-0.24998 0.43975,-0.55212 0.68555,-0.80664 v 30.57813 0.004 c 0.0154,30.57902 25.14168,55.70728 55.7207,55.72266 h 0.004 32.79883 0.004 c 30.57902,-0.0154 55.70728,-25.14364 55.72266,-55.72266 v -0.004 -16.72461 l 11.74805,11.74804 0.004,0.002 c 21.63729,21.61488 57.17717,21.61488 78.81446,0 l 0.008,-0.008 23.16797,-23.20703 0.01,-0.01 c 21.60101,-21.61191 21.60101,-57.12638 0,-78.73828 l -0.01,-0.01 -13.6836,-13.70703 h 16.58399 0.004 c 30.57902,-0.0154 55.70728,-25.14168 55.72266,-55.7207 v -0.004 -32.79883 -0.004 c -0.0154,-30.56305 -25.11666,-55.68421 -55.67969,-55.72265 h -0.01 -22.46875 l 11.50781,-11.52149 0.002,-0.002 c 21.61292,-21.63747 21.61228,-57.17782 -0.002,-78.814452 l -0.004,-0.002 -23.17187,-23.173828 h -0.002 c -21.63696,-21.633123 -57.19702,-21.633123 -78.83398,0 l -0.004,0.0039 -3.70312,3.707031 v -6.849609 -0.0059 C 330.11547,39.962194 304.98312,14.837769 274.4043,14.830078 h -0.002 -32.79492 z m 0.004,32 h 32.79102 c 13.28874,0.0054 23.71961,10.43254 23.73047,23.720703 v 32.804689 0.008 c 8.9e-4,1.10902 -0.0781,2.21678 -0.23633,3.31445 l -1.85937,12.89649 12.25195,4.43164 c 1.62301,0.58704 3.24738,1.22135 4.93359,1.91406 l 10.8125,4.44141 7.51758,-8.95117 c 0.6791,-0.80846 1.19513,-1.36604 1.5,-1.65821 l 0.12695,-0.12109 23.29297,-23.324219 c 9.40892,-9.398901 24.17029,-9.396405 33.57617,0.0078 l 23.16993,23.169927 c 9.39477,9.41076 9.3929,24.16962 -0.006,33.57812 h -0.002 l -31.30078,31.3418 5.20313,10.32617 c 2.36266,4.68796 4.46145,9.505 6.28515,14.42773 l 4.49219,12.125 12.79688,-1.84765 c 1.0957,-0.15816 2.20153,-0.23742 3.30859,-0.23633 h 0.008 32.77735 c 13.28623,0.0167 23.70986,10.44537 23.7207,23.73047 v 32.7832 c -0.007,13.29634 -10.44194,23.72964 -23.73828,23.73633 h -32.76953 -0.008 c -1.10706,0.001 -2.21288,-0.0762 -3.30859,-0.23438 l -12.87695,-1.85937 -4.44531,12.22656 c -1.39845,3.84573 -3.05711,7.74206 -4.90235,11.68164 l -5.91211,12.6211 11.69141,7.58593 c 1.39481,0.90513 2.6909,1.95371 3.86914,3.12696 l 23.14258,23.18164 0.004,0.004 c 9.38546,9.38551 9.38546,24.1184 0,33.50391 l -0.004,0.004 -23.16016,23.19921 c -9.4085,9.39876 -24.16735,9.40064 -33.57812,0.006 l -0.006,-0.006 -23.19336,-23.19336 -0.01,-0.01 c -1.29226,-1.2881 -2.4263,-2.72507 -3.3789,-4.28125 l -7.39063,-12.07422 -12.88477,5.86719 c -3.28375,1.49504 -6.68321,2.87544 -10.1582,4.15234 l -13.41015,4.92774 3.38281,13.88086 c 0.44511,1.82593 0.6726,3.69872 0.67578,5.57812 v 32.75391 c -0.007,13.29368 -10.43794,23.72742 -23.73047,23.73828 h -32.7832 -0.008 c -13.28987,-0.0109 -23.71766,-10.44059 -23.72851,-23.73047 v -0.008 -32.75977 c 0.003,-1.87317 0.22627,-3.73824 0.66797,-5.55859 l 3.38281,-13.93946 -13.48828,-4.8789 c -6.61211,-2.39249 -13.02803,-5.29491 -19.19141,-8.67969 l -14.71289,-8.08008 -7.36523,15.08203 c -1.15714,2.36911 -2.70096,4.52932 -4.56836,6.39063 l -0.01,0.01 -23.17968,23.17774 c -9.40498,9.40469 -24.16729,9.40469 -33.57227,0 L 82.673828,399.68555 c -9.404692,-9.40498 -9.404692,-24.16729 0,-33.57227 l 23.169922,-23.16992 c 2.6514,-2.6517 5.89253,-4.63656 9.45898,-5.79492 l 16.74024,-5.4375 -7.00391,-16.14844 c -0.92166,-2.12495 -1.79887,-4.36403 -2.61523,-6.64453 l -4.85938,-13.57617 -14.00781,3.42773 c -1.8315,0.44819 -3.710169,0.67516 -5.595703,0.67969 h -32.722656 -0.0078 C 51.940592,299.43837 41.510855,289.01058 41.5,275.7207 v -0.008 -32.77539 -0.008 c 0.01085,-13.28988 10.440592,-23.71962 23.730469,-23.73047 h 32.740234 c 1.881295,0.004 3.754177,0.23055 5.582027,0.67578 l 13.95118,3.39844 4.88281,-13.50196 c 1.16666,-3.22598 2.48273,-6.4407 3.91992,-9.59179 l 5.61719,-12.3125 -11.21094,-7.58203 c -1.00099,-0.67685 -1.93271,-1.45026 -2.78125,-2.31055 l -0.0312,-0.0312 -23.189453,-23.25 -0.0078,-0.008 c -9.383276,-9.38194 -9.383276,-24.1083 0,-33.49024 v -0.002 l 23.177735,-23.175782 0.008,-0.0078 c 9.37132,-9.394703 24.09803,-9.416775 33.4961,-0.04883 l 0.0625,0.0625 23.2207,23.222653 0.0527,0.0508 c 0.76377,0.74988 1.46468,1.56121 2.09571,2.42578 l 7.90625,10.83203 12.04687,-5.89063 c 3.47779,-1.70063 7.16453,-3.22808 11.02344,-4.64453 L 220,119.53906 218.10937,106.67578 c -0.15704,-1.06934 -0.23225,-2.14966 -0.22851,-3.23047 v -0.0273 -32.859376 -0.0078 c 0.0109,-13.288163 10.43978,-23.715275 23.72851,-23.720703 z"
     id="path1593"
     transform="translate(-9.5 -14.83)" />
</svg>
