<?xml version="1.0" encoding="UTF-8" standalone="no"?>
<svg
   id="Layer_1"
   data-name="Layer 1"
   viewBox="0 0 427.51 502"
   version="1.1"
   sodipodi:docname="Penjualan.svg"
   inkscape:version="1.1.1 (3bf5ae0d25, 2021-09-20)"
   xmlns:inkscape="http://www.inkscape.org/namespaces/inkscape"
   xmlns:sodipodi="http://sodipodi.sourceforge.net/DTD/sodipodi-0.dtd"
   xmlns="http://www.w3.org/2000/svg"
   xmlns:svg="http://www.w3.org/2000/svg">
  <sodipodi:namedview
     id="namedview1356"
     pagecolor="#ffffff"
     bordercolor="#666666"
     borderopacity="1.0"
     inkscape:pageshadow="2"
     inkscape:pageopacity="0.0"
     inkscape:pagecheckerboard="0"
     showgrid="false"
     inkscape:zoom="1.7370518"
     inkscape:cx="213.86812"
     inkscape:cy="250.71216"
     inkscape:window-width="1920"
     inkscape:window-height="1057"
     inkscape:window-x="-8"
     inkscape:window-y="-8"
     inkscape:window-maximized="1"
     inkscape:current-layer="Layer_1" />
  <path
     
     d="m 344.87109,10.244141 c -6.63352,-0.205324 -13.31013,1.034883 -19.54101,3.734375 l 1.08984,-0.425782 c -23.42806,8.17135 -47.64659,16.204961 -72.65625,24.09961 C 227.77932,45.801114 202.4023,53.333905 177.63672,60.25 l -0.69531,0.193359 -0.67579,0.257813 c -7.87883,2.988849 -14.90533,7.865448 -20.45898,14.203125 l -0.0312,0.03516 -0.0293,0.03516 c -2.65802,3.068953 -4.93469,6.44964 -6.77929,10.066407 l -0.12891,0.25 L 25.509766,349.7168 c -9.81367,21.02233 -0.545826,46.47868 20.488281,56.26953 L 265.22656,508.22461 c 21.01748,9.82088 46.47312,0.56522 56.27344,-20.46094 l 0.004,-0.006 123.36914,-264.51367 0.13867,-0.33594 c 1.50474,-3.65016 2.5979,-7.45734 3.25976,-11.34961 1.01911,-5.94587 1.04279,-12.0192 0.0684,-17.97265 l -0.33789,-2.06446 -0.85742,-1.90625 c -11.20079,-24.93847 -22.28281,-50.69486 -33.24805,-77.26562 l -0.006,-0.0137 C 403.94339,88.170467 394.52496,64.43785 385.63867,41.138672 l 0.43164,1.294922 C 382.78801,30.976524 375.0921,21.272047 364.68359,15.466797 l -0.26562,-0.148438 -0.27149,-0.138671 c -6.052,-3.079677 -12.64186,-4.730224 -19.27539,-4.935547 z m -0.98828,31.978515 c 1.87956,0.05818 3.73742,0.53591 5.47461,1.373047 2.88777,1.704208 5.02519,4.418195 5.95117,7.650391 l 0.1875,0.658203 0.24414,0.636719 c 8.99199,23.576303 18.51382,47.573894 28.56446,71.990234 l 0.002,0.006 0.004,0.006 c 10.73453,26.01211 21.59419,51.23494 32.57031,75.74023 0.18395,1.95998 0.18364,3.93426 -0.15039,5.87891 l -0.002,0.0137 -0.002,0.0156 c -0.25701,1.51317 -0.69035,2.99018 -1.26758,4.41211 l -122.96093,263.63671 -0.002,0.002 c -2.48923,5.34291 -8.38256,7.48746 -13.72265,4.99218 l -0.006,-0.002 -219.259768,-102.25586 -0.0059,-0.002 c -5.344541,-2.48775 -7.490874,-8.38139 -4.996094,-13.72266 l 0.002,-0.006 L 177.50977,99.525391 c 0.65781,-1.2783 1.46168,-2.475522 2.40039,-3.564454 2.03803,-2.313708 4.60505,-4.086598 7.4707,-5.21875 24.76096,-6.928091 50.07999,-14.439824 75.98633,-22.564453 l 0.0156,-0.0059 0.0137,-0.0039 c 25.29696,-7.985336 49.81728,-16.118423 73.5625,-24.400391 l 0.55469,-0.193359 0.53711,-0.232422 c 1.86572,-0.808312 3.85576,-1.180311 5.83203,-1.119141 z"
     id="Path_52"
     transform="translate(-21.54 -10.22)" />
  <g
     id="Rp"
     class="cls-2"
     >
    <g
       aria-label="Rp"
       transform="translate(90.84 247.06) rotate(25)"
       id="text1348"
       class="cls-3"
       >
      <path
         d="M 81.924299,-55.759049 124.69095,0 H 80.661149 l -33.38325,-52.330499 h -0.3609 V 0 H 11.5488 v -136.0593 h 52.871849 q 20.2104,0.18045 33.744149,10.28565 13.533752,9.92475 13.533752,31.759202 0,14.075099 -7.75935,25.082549 -7.578902,10.827 -22.014901,13.3533 z m -35.0073,-53.232751 v 33.924601 h 3.42855 q 0.90225,0.18045 1.8045,0.18045 0.90225,0 1.62405,0 7.9398,-0.3609 14.436,-3.609 6.67665,-3.42855 6.67665,-13.353299 0,-9.924752 -6.67665,-13.172852 -6.4962,-3.42855 -14.436,-3.78945 -0.7218,0 -1.62405,0 -0.90225,0 -1.8045,0 l -3.42855,-0.18045 z"
         id="path1421"
          />
      <path
         d="m 165.29191,-92.570848 v 10.466099 h 0.3609 q 4.15035,-6.31575 11.1879,-9.563849 7.03755,-3.42855 14.61645,-3.78945 0.54135,0 1.0827,0 0.54135,0 1.0827,0 20.75175,0 33.74415,14.977349 12.9924,14.7969 12.9924,34.6464 0,20.029949 -12.9924,34.465949 -12.81195,14.4359999 -33.38325,14.4359999 -0.7218,0 -1.4436,0 -0.54135,0 -1.26315,0 -7.218,-0.5413499 -14.25555,-3.2480999 -6.8571,-2.8871999 -11.72925,-8.4811499 V 46.195199 h -32.8419 V -92.570848 h 32.8419 z m 20.02995,25.443449 q -9.92475,0.18045 -15.5187,6.4962 -5.59395,6.1353 -5.59395,14.61645 0,8.84205 5.59395,14.7969 5.59395,5.954849 15.5187,5.954849 10.1052,0 15.5187,-5.954849 5.59395,-5.95485 5.59395,-14.7969 0,-8.48115 -5.59395,-14.61645 -5.4135,-6.31575 -15.5187,-6.31575 z"
         id="path1423"
          />
    </g>
  </g>
  <g
     id="Ellipse_9"
     data-name="Ellipse 9"
     >
    <path
       
       d="m 296.2793,49.019531 c -20.05337,0 -36.45899,16.407569 -36.45899,36.460938 0,20.053371 16.40562,36.458981 36.45899,36.458981 20.05337,0 36.46093,-16.40561 36.46093,-36.458981 0,-20.053369 -16.40756,-36.460938 -36.46093,-36.460938 z m 0,14 c 12.48721,0 22.46093,9.973723 22.46093,22.460938 0,12.487215 -9.97372,22.458981 -22.46093,22.458981 -12.48722,0 -22.45899,-9.971766 -22.45899,-22.458981 0,-12.487215 9.97177,-22.460938 22.45899,-22.460938 z"
       id="circle1351" />
  </g>
  <rect
     id="Rectangle_100"
     data-name="Rectangle 100"
     class="cls-5"
     x="325.19"
     y="47.82"
     width="84.7"
     height="36.83"
     rx="14.73"
     transform="translate(-3.16 188.54) rotate(-31)"
      />
</svg>
